<svg width="24" height="24" viewBox="0 0 24 24" fill="none" xmlns="http://www.w3.org/2000/svg">
<path d="M1 12C1 12.9193 1.28452 13.8295 1.83733 14.6788C2.39013 15.5281 3.20038 16.2997 4.22183 16.9497C5.24327 17.5998 6.4559 18.1154 7.79048 18.4672C9.12506 18.8189 10.5555 19 12 19C13.4445 19 14.8749 18.8189 16.2095 18.4672C17.5441 18.1154 18.7567 17.5998 19.7782 16.9497C20.7996 16.2997 21.6099 15.5281 22.1627 14.6788C22.7155 13.8295 23 12.9193 23 12C23 11.0807 22.7155 10.1705 22.1627 9.32122C21.6099 8.47194 20.7996 7.70026 19.7782 7.05025C18.7567 6.40024 17.5441 5.88463 16.2095 5.53284C14.8749 5.18106 13.4445 5 12 5C10.5555 5 9.12506 5.18106 7.79048 5.53284C6.4559 5.88463 5.24327 6.40024 4.22183 7.05025C3.20038 7.70026 2.39013 8.47194 1.83733 9.32122C1.28452 10.1705 1 11.0807 1 12Z" stroke="black" stroke-width="1.25" stroke-linecap="round" stroke-linejoin="round"/>
</svg>
